<?xml version="1.0" encoding="UTF-8"?>
<svg id="_图层_1" data-name="图层 1" xmlns="http://www.w3.org/2000/svg" viewBox="0 0 917.47 794.55">
  <defs>
    <style>
      .cls-1 {
        fill: #42847f;
        stroke-width: 0px;
      }
    </style>
  </defs>
  <path class="cls-1" d="M351.13,455.71h180.14s94.24-158.86,94.24-158.86h-201.16s-79.9,148.36-79.9,148.36c-2.97,4.67.74,10.5,6.68,10.5Z"/>
  <path class="cls-1" d="M468.42,556.16H171.42c-13.9,0-26.6-27.65-19.64-38.58l190.97-343.18h451.82S688.1,0,688.1,0H229.37L0,397.28l229.37,397.28h92.03l147.02-238.4Z"/>
  <polygon class="cls-1" points="817.8 224.65 667.1 479.78 667.13 479.79 664.53 484.13 621.98 556.16 621.34 556.16 478.38 794.55 688.1 794.55 917.47 397.28 817.8 224.65"/>
</svg>